<?xml version="1.0" encoding="UTF-8"?><svg id="Layer_1" xmlns="http://www.w3.org/2000/svg" viewBox="0 0 296.26 125.26"><defs><style>.cls-1{fill:#1d1d1b;stroke-width:0px;}</style></defs><path class="cls-1" d="M99.84,32.91v.68h-4.43v15.8h13.92v-15.8h-4.43v-.68h15.85v.68h-4.43v32.95h4.43v.67h-15.85v-.67h4.43v-16.47h-13.92v16.47h4.43v.67h-15.85v-.67h4.43v-32.95h-4.43v-.68h15.85Z"/><path class="cls-1" d="M133.41,67.88c-6.5,0-11.75-4.91-11.75-11.03s5.3-10.98,11.75-10.98,11.75,4.91,11.75,10.98-5.25,11.03-11.75,11.03ZM138.08,63.45c.53-1.78.58-4.38.58-8,0-4.53-.67-8.91-5.3-8.91s-5.2,4.62-5.2,10.31.34,10.36,5.25,10.36c2.07,0,3.8-.82,4.67-3.76Z"/><path class="cls-1" d="M154.79,46.54v15.41c0,2.17.77,4.24,3.28,4.24,2.99,0,4.96-3.13,4.96-6.41v-12.57h-3.18v-.67h9.06v19.99h3.18v.67h-8.96v-3.9h-.1c-.91,2.55-4.05,4.34-7.23,4.34-4.62,0-6.89-2.12-6.89-6.31v-14.11h-3.23v-.67h9.1Z"/><path class="cls-1" d="M187.74,46.44h.67v5.88h-.63c-1.73-4.67-3.56-5.78-6.41-5.78-2.41,0-4.24,1.35-4.24,3.32,0,2.7,2.94,3.28,7.75,4.91,2.79.96,5.15,2.79,5.15,6.17,0,4-3.71,6.94-8.24,6.94-2.22,0-5.73-1.35-6.74-1.35-.53,0-.67.14-.87.67h-.67v-6.98h.67c2.12,5.59,4.29,6.98,7.42,6.98s4.29-1.49,4.29-3.85c0-3.03-4.91-3.76-8.04-5.16-2.22-.96-4.05-2.55-4.05-5.44,0-3.85,3.32-6.89,7.9-6.89,2.22,0,4.48,1.2,5.11,1.2.58,0,.72-.19.92-.63Z"/><path class="cls-1" d="M197.71,55.11v2.79c0,3.76.39,9.3,6.12,9.3,3.95,0,6.5-2.84,7.13-5.59l.67.24c-1.16,3.85-4.24,6.02-8.53,6.02-6.89,0-11.9-4.38-11.9-11.08,0-5.78,5.2-10.93,11.22-10.93,5.11,0,9.49,3.28,9.49,9.25h-14.21ZM205.42,54.44v-3.37c0-3.13-1.01-4.53-3.18-4.53-3.71,0-4.43,3.47-4.53,7.9h7.71Z"/><path class="cls-1" d="M233.83,62.85c-4.64,0-8.57-3.84-8.57-8.44,0-4.94,4.39-8.55,8.57-8.55,4.5,0,8.55,3.52,8.55,8.48,0,4.62-4.05,8.51-8.55,8.51ZM236.75,61.71c1.42-1.14,1.9-2.84,1.9-7.5,0-2.35-.14-3.98-.44-4.94-.57-1.92-1.83-3.09-4.41-3.09-1.3,0-2.36.32-3.13,1.08-1.14,1.1-1.69,3-1.69,7.16,0,5.72,1.01,8.12,4.85,8.12,1.28,0,2.26-.27,2.93-.82Z"/><path class="cls-1" d="M257.7,46.23v3.91h-.3c-1.03-2.7-2.35-3.59-4.28-3.59h-3.52v7.36h1.07c1.33,0,3.02-.14,3.66-3.41h.3v7.11h-.3c-.55-2.58-1.69-3.38-3.18-3.38h-1.55v7.96h2.13v.32h-7.55v-.32h2.1v-15.64h-2.1v-.32h13.51Z"/><rect class="cls-1" x="224.68" y="66.43" width="33.6" height=".75"/><path class="cls-1" d="M46.3,75.32v.39h-2.01l4.96,14.51h.06l2.89-8.21-2.15-6.31h-1.49v-.39h8.23v.39h-2.56l4.98,14.54h.06l5.09-14.54h-2.37v-.39h5.07v.39h-2.23l-7.08,19.99h-.8l-4.52-13.05h-.06l-4.63,13.05h-.8l-6.83-19.99h-2.29v-.39h8.45Z"/><path class="cls-1" d="M71.82,83.11v11.43h1.84v.39h-7.05v-.39h1.84v-11.04h-1.84v-.39h5.2ZM70.14,79.15c-1.07,0-1.95-.88-1.95-1.95s.88-1.95,1.95-1.95,1.95.88,1.95,1.95-.88,1.95-1.95,1.95Z"/><path class="cls-1" d="M80.22,75.07v19.47h1.84v.39h-7.05v-.39h1.84v-19.08h-1.84v-.39h5.2Z"/><path class="cls-1" d="M88.62,75.07v19.47h1.84v.39h-7.05v-.39h1.84v-19.08h-1.84v-.39h5.2Z"/><path class="cls-1" d="M98.47,95.31c-3.72,0-6.72-2.81-6.72-6.31s3.03-6.28,6.72-6.28,6.72,2.81,6.72,6.28-3,6.31-6.72,6.31ZM101.14,92.78c.3-1.02.33-2.51.33-4.57,0-2.59-.39-5.09-3.03-5.09s-2.97,2.64-2.97,5.89.19,5.92,3,5.92c1.18,0,2.18-.47,2.67-2.15Z"/><path class="cls-1" d="M112.43,83.11v.39h-1.79l2.84,7.16,2.18-5.86-.55-1.29h-1.4v-.39h6.88v.39h-1.84l2.84,7.16,2.64-7.16h-1.93v-.39h3.72v.39h-1.35l-4.52,12.2h-.19l-4.08-10.33-3.83,10.33h-.19l-4.79-12.2h-1.65v-.39h7.02Z"/><path class="cls-1" d="M139.08,74.53h.74l8.67,19.99h2.37v.39h-9.25v-.39h2.56l-3.19-7.38h-6.61l-3.06,7.38h2.45v.39h-5.23v-.39h2.34l8.21-19.99ZM134.51,86.76h6.33l-3.25-7.52-3.08,7.52Z"/><path class="cls-1" d="M156.07,75.06v19.47h1.84v.39h-7.05v-.39h1.84v-19.08h-1.84v-.39h5.2Z"/><path class="cls-1" d="M162.95,88v1.6c0,2.15.22,5.31,3.5,5.31,2.26,0,3.72-1.62,4.08-3.19l.39.14c-.66,2.2-2.42,3.44-4.87,3.44-3.94,0-6.8-2.51-6.8-6.33,0-3.3,2.97-6.25,6.42-6.25,2.92,0,5.42,1.87,5.42,5.29h-8.12ZM167.36,87.61v-1.93c0-1.79-.58-2.59-1.82-2.59-2.12,0-2.53,1.98-2.59,4.52h4.41Z"/><path class="cls-1" d="M179.06,83.1v.39h-1.68l2.34,3.85,2.81-3.85h-1.84v-.39h3.88v.39h-1.54l-3.03,4.21,4.32,6.83h1.13v.39h-7.02v-.39h1.9l-2.73-4.27-3.06,4.27h2.12v.39h-4.49v-.39h1.84l3.33-4.63-4.1-6.42h-1.4v-.39h7.21Z"/><path class="cls-1" d="M197.01,93.59c0,.47.11,1.16.91,1.16.47,0,.74-.19,1.05-.52l.25.25c-.39.52-.88.83-2.45.83-1.84,0-2.73-.72-2.95-1.9h-.06c-.52,1.35-1.29,1.9-3.41,1.9-2.29,0-3.94-.94-3.94-2.75,0-2.75,2.92-2.97,5.31-3.83,1.29-.47,1.93-.8,1.93-1.9v-1.84c0-1.07-.52-1.87-1.71-1.87-.85,0-1.57.36-1.57,1.32l.17,1.54c0,.72-.44,1.13-1.68,1.13s-1.6-.55-1.6-1.4c0-1.82,2.15-2.97,4.74-2.97,3.74,0,5.01,1.54,5.01,3.83v7.05ZM193.6,88.08c-.08.41-.72.66-1.9,1.21-1.18.55-1.76,1.43-1.76,2.75,0,1.79.61,2.62,1.79,2.62s1.93-1.18,1.93-2.84v-3.74h-.06Z"/><path class="cls-1" d="M214.03,94.52h1.84v.39h-6.91v-.39h1.71v-8.78c0-1.35-.63-2.15-1.73-2.15-.99,0-1.79.47-2.42,1.4-.61.91-.91,2.09-.91,3.5v6.03h1.73v.39h-6.91v-.39h1.82v-11.04h-1.82v-.39h5.12v2.75h.06c.88-2.04,2.48-3,4.6-3,2.42,0,3.83,1.62,3.83,3.83v7.85Z"/><path class="cls-1" d="M230,75.06v19.47h1.82v.39h-5.12v-2.04h-.06c-.58,1.51-1.68,2.42-3.25,2.42-3.55,0-6-3-6-6.31,0-2.37,1.32-4.38,2.64-5.29,1.02-.72,2.18-.99,3.36-.99,1.65,0,2.64.85,3.19,2.31h.06v-9.58h-1.87v-.39h5.23ZM221.1,89.46c.03,1.46.11,2.84.3,3.58.28,1.05.8,1.87,1.98,1.87,2.75,0,3.25-2.75,3.25-5.89,0-3.97-.96-5.92-3.06-5.92-1.71,0-2.26,1.24-2.45,4.46-.03.5-.03,1.18-.03,1.9Z"/><path class="cls-1" d="M237.07,88v1.6c0,2.15.22,5.31,3.5,5.31,2.26,0,3.72-1.62,4.08-3.19l.39.14c-.66,2.2-2.42,3.44-4.87,3.44-3.94,0-6.8-2.51-6.8-6.33,0-3.3,2.97-6.25,6.42-6.25,2.92,0,5.42,1.87,5.42,5.29h-8.12ZM241.48,87.61v-1.93c0-1.79-.58-2.59-1.82-2.59-2.12,0-2.53,1.98-2.59,4.52h4.41Z"/><path class="cls-1" d="M256.62,86.95c-.91,0-1.68-.33-1.68-1.24,0-.39.19-.88.19-1.35,0-.33-.14-.69-.63-.69-.96,0-2.34,1.82-2.34,3.63v7.21h2.18v.39h-7.32v-.39h1.79v-11.04h-1.79v-.39h5.09v2.31h.06c.66-1.4,1.71-2.56,3.55-2.56,1.54,0,2.59.88,2.59,2.34,0,1.1-.5,1.76-1.68,1.76Z"/><path class="cls-1" d="M77.86,44.18c-.03-1.29-.07-2.59-.13-3.88-.03-.67.02-1.42-.16-2.07-.15-.53-.51-1-.88-1.39-.6-.64-1.34-1.13-1.99-1.72-.46-.42-.91-.85-1.36-1.28-2.32-2.22-4.55-4.63-7.08-6.61-.86-.68-1.99-1.7-2.95-2.62-1.39-1.33-2.77-2.68-4.12-4.05-.45-.46-.9-.92-1.33-1.39-.2-.22-.43-.28-.65-.25-.18,0-.37.07-.53.25-2.01,2.14-4.23,4.07-6.28,6.17-2.04,2.08-4.15,4.11-6.22,6.16-1.03,1.02-2.13,1.97-3.15,3-.99,1.01-1.92,2.1-2.83,3.18-.87,1.04-.8,2.13-.78,3.43.01,1.42.06,2.84.12,4.26.13,2.92.31,5.83.38,8.75.07,2.76-.06,5.52,0,8.29.03,1.38.08,2.76.1,4.14,0,1.06.5,1.84,1.61,1.9,3.03.15,6.09.15,9.13.2,3.18.06,6.37.08,9.56,0,1.58-.03,3.18-.2,4.76-.16,1.61.04,3.21.14,4.82.12,1.61-.02,3.23-.1,4.84-.21,1.27-.08,2.79.05,3.78-.9.88-.85.89-2.15.98-3.3.11-1.36.15-2.73.17-4.09.04-2.73.04-5.46.13-8.19.08-2.57.13-5.14.08-7.72ZM39.39,49.12c-.08-1.71-.16-3.41-.22-5.12,2.42,1.33,4.7,2.95,7.04,4.4.58.36,1.17.72,1.77,1.06.11.06.21.12.32.18.09.04.54.26.21.11.12.06.23.11.35.18.88.46,1.74.98,2.61,1.48,1.12.65,2.25,1.3,3.38,1.92.73.4,1.52.91,2.33,1.16.05,1.02.09,2.05.14,3.07.07,1.83.13,3.66.18,5.49-1.99-.72-3.95-1.55-5.89-2.38-2.87-1.23-5.72-2.5-8.53-3.84-1.19-.57-2.37-1.14-3.52-1.77-.03-1.98-.07-3.96-.16-5.93ZM58.84,53.96c.76-.56,1.52-1.12,2.28-1.7,1.68-1.27,3.34-2.57,4.98-3.89,3.37-2.7,6.67-5.48,9.92-8.31.16,3.8.14,7.58.06,11.38-.09.03-.17.07-.25.13-2.59,2.09-5.47,3.7-8.19,5.59-2.28,1.58-4.59,3.13-6.91,4.66-.52.34-1.04.69-1.56,1.03-.08-2.97-.2-5.93-.33-8.9ZM74.18,36.87c.49.4,1.08.8,1.45,1.32-2.96,2.58-5.96,5.12-9,7.6-1.63,1.33-3.28,2.65-4.95,3.94-.8.62-1.61,1.24-2.42,1.84-.17.13-.35.26-.52.38-.17-3.5-.34-7-.49-10.51,3.91-2.83,7.81-5.68,11.66-8.58,1,.96,2,1.93,3.01,2.88.41.39.82.76,1.26,1.12ZM63.69,27.24c.43.39.86.78,1.33,1.12.25.18.05.02.28.22.22.19.44.38.66.57.93.83,1.84,1.69,2.74,2.55-3.48,2.61-6.99,5.19-10.52,7.74-.1-2.61-.18-5.21-.2-7.82-.04-3.27,0-6.53.15-9.8,1.8,1.86,3.66,3.68,5.57,5.41ZM49.04,28.95c1.91-1.89,3.85-3.75,5.8-5.6.55-.52,1.07-1.07,1.61-1.61-.27,5.94-.18,11.88.04,17.81-3.91-1.99-7.78-4.12-11.34-6.69,1.31-1.29,2.59-2.62,3.89-3.92ZM39.13,39.23c.18-.51.76-.95,1.1-1.35.9-1.03,1.77-2.07,2.79-2.99.3-.28.6-.56.9-.84,3.94,2.89,8.29,5.23,12.65,7.43.16,3.71.35,7.42.52,11.13-.39-.2-.78-.4-1.17-.61-1.09-.59-2.16-1.21-3.24-1.83-1.76-1.01-3.4-1.84-5-2.82-2.83-1.73-5.54-3.75-8.5-5.26-.02-.01-.05,0-.07-.02,0-.37-.03-.74-.03-1.1,0-.52-.13-1.24.05-1.74ZM39.58,66.75s-.02,0-.03,0c-.11.09-.03-.13.03,0ZM45.2,66.88c-1.49-.03-2.98-.07-4.46-.1-.31,0-.61-.01-.92-.02-.03,0-.08,0-.13-.01,0-.02,0-.02,0-.02.03-.12,0-.28,0-.41,0-.34-.01-.68-.02-1.02-.06-2.78-.06-5.56-.09-8.33,2.35,1.23,4.78,2.33,7.2,3.42,3.05,1.37,6.12,2.7,9.23,3.9.5.19,1.01.38,1.52.57.01.71.03,1.41.04,2.12-1.12.02-2.24.04-3.36.04-3,0-6-.06-9-.13ZM75.93,62c-.04,1.2,0,2.58-.31,3.75-.11.42-.41.71-.84.8-.74.16-1.59.12-2.34.17-3.03.2-6.08.28-9.11.09-1.35-.08-2.73.06-4.09.12,0-.7-.02-1.41-.03-2.11.8-.49,1.59-1.02,2.37-1.54,2.25-1.49,4.49-2.99,6.71-4.52,2.57-1.78,5.25-3.37,7.75-5.25,0,.28-.01.57-.02.85-.06,2.55,0,5.1-.09,7.64Z"/></svg>