<?xml version="1.0" encoding="UTF-8"?><svg id="Layer_1" xmlns="http://www.w3.org/2000/svg" viewBox="0 0 238.21 164.48"><defs><style>.cls-1{fill:#fff;stroke-width:0px;}</style></defs><rect class="cls-1" x="36.47" y="100.07" width="35.12" height=".75"/><path class="cls-1" d="M47.53,96.33c-3.8,0-6.86-2.87-6.86-6.44s3.09-6.41,6.86-6.41,6.86,2.87,6.86,6.41-3.07,6.44-6.86,6.44ZM50.26,93.74c.31-1.04.34-2.56.34-4.67,0-2.64-.39-5.2-3.09-5.2s-3.04,2.7-3.04,6.02.2,6.05,3.07,6.05c1.21,0,2.22-.48,2.73-2.19Z"/><path class="cls-1" d="M65.78,79.74c-1.01,0-1.49-.51-1.49-1.41,0-.25.23-1.46.23-1.49,0-.67-.56-.98-1.21-.98-1.21,0-1.6.82-1.6,3.35v4.67h2.33v.39h-2.33v11.28h2.17v.39h-7.45v-.39h1.86v-11.28h-1.86v-.39h1.86v-1.07c0-5.06,1.6-7.34,5.57-7.34,2.03,0,3.54,1.01,3.54,2.73,0,.87-.73,1.55-1.6,1.55Z"/><path class="cls-1" d="M87.66,75.58v.55h-2.88l7.09,20.77h.08l4.14-11.74-3.07-9.02h-2.13v-.55h11.78v.55h-3.67l7.13,20.81h.08l7.29-20.81h-3.39v-.55h7.25v.55h-3.19l-10.13,28.61h-1.14l-6.46-18.68h-.08l-6.62,18.68h-1.14l-9.77-28.61h-3.27v-.55h12.1Z"/><path class="cls-1" d="M124.19,86.73v16.35h2.64v.55h-10.09v-.55h2.64v-15.8h-2.64v-.55h7.45ZM121.79,81.06c-1.54,0-2.8-1.26-2.8-2.8s1.26-2.8,2.8-2.8,2.8,1.26,2.8,2.8-1.26,2.8-2.8,2.8Z"/><path class="cls-1" d="M136.21,75.23v27.86h2.64v.55h-10.09v-.55h2.64v-27.31h-2.64v-.55h7.45Z"/><path class="cls-1" d="M148.23,75.23v27.86h2.64v.55h-10.09v-.55h2.64v-27.31h-2.64v-.55h7.45Z"/><path class="cls-1" d="M162.34,104.19c-5.32,0-9.62-4.02-9.62-9.02s4.34-8.98,9.62-8.98,9.62,4.02,9.62,8.98-4.3,9.02-9.62,9.02ZM166.16,100.57c.43-1.46.47-3.59.47-6.54,0-3.7-.55-7.29-4.33-7.29s-4.26,3.78-4.26,8.43.28,8.47,4.3,8.47c1.69,0,3.11-.67,3.82-3.07Z"/><path class="cls-1" d="M182.32,86.73v.55h-2.56l4.06,10.25,3.11-8.39-.79-1.85h-2.01v-.55h9.85v.55h-2.64l4.06,10.25,3.78-10.25h-2.76v-.55h5.32v.55h-1.93l-6.46,17.46h-.28l-5.83-14.78-5.48,14.78h-.28l-6.86-17.46h-2.36v-.55h10.05Z"/><path class="cls-1" d="M49.9,108.67h.95l11.05,25.46h3.02v.49h-11.78v-.49h3.26l-4.07-9.4h-8.42l-3.89,9.4h3.12v.49h-6.66v-.49h2.98l10.45-25.46ZM44.08,124.25h8.07l-4.14-9.57-3.93,9.57Z"/><path class="cls-1" d="M71.53,109.34v24.79h2.35v.49h-8.98v-.49h2.35v-24.3h-2.35v-.49h6.63Z"/><path class="cls-1" d="M80.3,125.82v2.03c0,2.74.28,6.77,4.45,6.77,2.88,0,4.73-2.07,5.19-4.07l.49.18c-.84,2.81-3.09,4.38-6.21,4.38-5.02,0-8.66-3.19-8.66-8.07,0-4.21,3.79-7.96,8.17-7.96,3.72,0,6.91,2.38,6.91,6.73h-10.35ZM85.91,125.33v-2.45c0-2.28-.74-3.3-2.31-3.3-2.7,0-3.23,2.53-3.3,5.75h5.61Z"/><path class="cls-1" d="M100.82,119.58v.49h-2.14l2.98,4.91,3.58-4.91h-2.35v-.49h4.94v.49h-1.96l-3.86,5.37,5.51,8.7h1.44v.49h-8.94v-.49h2.42l-3.47-5.44-3.89,5.44h2.7v.49h-5.72v-.49h2.35l4.24-5.89-5.23-8.17h-1.79v-.49h9.19Z"/><path class="cls-1" d="M123.68,132.94c0,.6.14,1.47,1.16,1.47.6,0,.95-.25,1.33-.67l.32.32c-.49.67-1.12,1.05-3.12,1.05-2.35,0-3.47-.91-3.75-2.42h-.07c-.67,1.72-1.65,2.42-4.35,2.42-2.91,0-5.02-1.19-5.02-3.51,0-3.51,3.72-3.79,6.77-4.87,1.65-.6,2.45-1.02,2.45-2.42v-2.35c0-1.37-.67-2.38-2.17-2.38-1.09,0-2,.46-2,1.68l.21,1.96c0,.91-.56,1.44-2.14,1.44s-2.03-.7-2.03-1.79c0-2.31,2.74-3.79,6.03-3.79,4.77,0,6.38,1.96,6.38,4.87v8.98ZM119.33,125.93c-.11.53-.91.84-2.42,1.54-1.51.7-2.24,1.82-2.24,3.51,0,2.28.77,3.33,2.28,3.33s2.45-1.51,2.45-3.61v-4.77h-.07Z"/><path class="cls-1" d="M145.36,134.14h2.35v.49h-8.8v-.49h2.17v-11.19c0-1.72-.81-2.74-2.21-2.74-1.26,0-2.28.6-3.09,1.79-.77,1.16-1.16,2.67-1.16,4.45v7.68h2.21v.49h-8.8v-.49h2.31v-14.06h-2.31v-.49h6.52v3.51h.07c1.12-2.6,3.16-3.82,5.86-3.82,3.09,0,4.87,2.07,4.87,4.87v10Z"/><path class="cls-1" d="M165.7,109.34v24.79h2.31v.49h-6.52v-2.6h-.07c-.74,1.93-2.14,3.09-4.14,3.09-4.52,0-7.65-3.82-7.65-8.03,0-3.02,1.68-5.58,3.37-6.73,1.3-.91,2.77-1.26,4.28-1.26,2.1,0,3.37,1.09,4.07,2.95h.07v-12.2h-2.38v-.49h6.66ZM154.37,127.68c.04,1.86.14,3.61.39,4.56.35,1.33,1.02,2.38,2.53,2.38,3.51,0,4.14-3.51,4.14-7.51,0-5.05-1.23-7.54-3.89-7.54-2.17,0-2.88,1.58-3.12,5.68-.04.63-.04,1.51-.04,2.42Z"/><path class="cls-1" d="M174.71,125.82v2.03c0,2.74.28,6.77,4.45,6.77,2.88,0,4.73-2.07,5.19-4.07l.49.18c-.84,2.81-3.09,4.38-6.21,4.38-5.02,0-8.66-3.19-8.66-8.07,0-4.21,3.79-7.96,8.17-7.96,3.72,0,6.91,2.38,6.91,6.73h-10.35ZM180.32,125.33v-2.45c0-2.28-.74-3.3-2.31-3.3-2.7,0-3.23,2.53-3.3,5.75h5.61Z"/><path class="cls-1" d="M199.61,124.49c-1.16,0-2.14-.42-2.14-1.58,0-.49.25-1.12.25-1.72,0-.42-.18-.88-.81-.88-1.23,0-2.98,2.31-2.98,4.63v9.19h2.77v.49h-9.33v-.49h2.28v-14.06h-2.28v-.49h6.49v2.95h.07c.84-1.79,2.17-3.26,4.52-3.26,1.96,0,3.3,1.12,3.3,2.98,0,1.4-.63,2.24-2.14,2.24Z"/><path class="cls-1" d="M90.45,33.8v.67h-4.4v15.69h13.82v-15.69h-4.4v-.67h15.74v.67h-4.4v32.72h4.4v.67h-15.74v-.67h4.4v-16.36h-13.82v16.36h4.4v.67h-15.74v-.67h4.4v-32.72h-4.4v-.67h15.74Z"/><path class="cls-1" d="M123.78,68.52c-6.46,0-11.67-4.88-11.67-10.95s5.26-10.91,11.67-10.91,11.67,4.88,11.67,10.91-5.21,10.95-11.67,10.95ZM128.42,64.12c.53-1.77.57-4.35.57-7.94,0-4.5-.67-8.85-5.26-8.85s-5.17,4.59-5.17,10.24.34,10.28,5.21,10.28c2.06,0,3.78-.81,4.64-3.73Z"/><path class="cls-1" d="M145.02,47.34v15.31c0,2.15.77,4.21,3.25,4.21,2.96,0,4.93-3.11,4.93-6.36v-12.48h-3.16v-.67h8.99v19.85h3.16v.67h-8.9v-3.87h-.1c-.91,2.53-4.02,4.31-7.17,4.31-4.59,0-6.84-2.1-6.84-6.27v-14.01h-3.2v-.67h9.04Z"/><path class="cls-1" d="M177.74,47.24h.67v5.83h-.62c-1.72-4.64-3.54-5.74-6.36-5.74-2.39,0-4.21,1.34-4.21,3.3,0,2.68,2.92,3.25,7.7,4.88,2.77.96,5.12,2.77,5.12,6.12,0,3.97-3.68,6.89-8.18,6.89-2.2,0-5.69-1.34-6.7-1.34-.53,0-.67.14-.86.67h-.67v-6.94h.67c2.11,5.55,4.26,6.94,7.37,6.94s4.26-1.48,4.26-3.83c0-3.01-4.88-3.73-7.99-5.12-2.2-.96-4.02-2.53-4.02-5.4,0-3.83,3.3-6.84,7.84-6.84,2.2,0,4.45,1.2,5.07,1.2.57,0,.72-.19.91-.62Z"/><path class="cls-1" d="M187.64,55.85v2.77c0,3.73.38,9.23,6.07,9.23,3.92,0,6.46-2.82,7.08-5.55l.67.24c-1.15,3.83-4.21,5.98-8.47,5.98-6.84,0-11.81-4.35-11.81-11,0-5.74,5.17-10.86,11.14-10.86,5.07,0,9.42,3.25,9.42,9.18h-14.11ZM195.29,55.18v-3.35c0-3.11-1-4.5-3.16-4.5-3.68,0-4.4,3.44-4.5,7.84h7.65Z"/><path class="cls-1" d="M68.18,49.18c-.02-1.01-.06-2.03-.1-3.04-.02-.52.02-1.12-.13-1.63-.12-.42-.4-.78-.69-1.09-.47-.5-1.05-.89-1.56-1.35-.36-.33-.71-.67-1.06-1.01-1.81-1.74-3.57-3.63-5.55-5.18-.68-.53-1.56-1.34-2.31-2.06-1.09-1.04-2.17-2.1-3.23-3.18-.35-.36-.7-.72-1.05-1.09-.16-.17-.34-.22-.51-.19-.14,0-.29.06-.42.19-1.58,1.68-3.31,3.19-4.92,4.84-1.6,1.63-3.26,3.22-4.88,4.83-.81.8-1.67,1.54-2.47,2.35-.78.79-1.51,1.65-2.22,2.49-.68.82-.62,1.67-.61,2.69.01,1.11.05,2.23.1,3.34.1,2.29.24,4.57.29,6.86.05,2.17-.05,4.33,0,6.5.03,1.08.07,2.16.08,3.24,0,.83.39,1.44,1.26,1.49,2.38.12,4.78.11,7.16.16,2.5.04,4.99.06,7.49,0,1.24-.03,2.5-.16,3.73-.13,1.26.03,2.52.11,3.78.09,1.27-.02,2.53-.08,3.79-.16.99-.07,2.19.04,2.96-.71.69-.67.7-1.69.77-2.59.09-1.07.12-2.14.13-3.21.03-2.14.03-4.28.1-6.42.07-2.02.1-4.03.06-6.05ZM38.02,53.06c-.06-1.34-.13-2.67-.17-4.01,1.9,1.04,3.68,2.31,5.52,3.45.46.28.92.57,1.38.83.08.05.17.1.25.14.07.03.42.21.17.08.09.04.18.09.27.14.69.36,1.37.77,2.05,1.16.88.51,1.76,1.02,2.65,1.51.58.32,1.19.71,1.83.91.04.8.07,1.61.11,2.41.06,1.44.1,2.87.14,4.31-1.56-.56-3.1-1.22-4.62-1.87-2.25-.96-4.48-1.96-6.69-3.01-.93-.44-1.86-.9-2.76-1.39-.02-1.55-.05-3.1-.13-4.65ZM53.28,56.85c.6-.44,1.19-.88,1.79-1.33,1.32-1,2.62-2.02,3.91-3.05,2.64-2.12,5.23-4.29,7.78-6.51.13,2.98.11,5.95.05,8.92-.07.03-.14.05-.2.1-2.03,1.63-4.29,2.9-6.42,4.38-1.79,1.24-3.6,2.45-5.42,3.65-.41.27-.81.54-1.22.81-.06-2.33-.15-4.65-.26-6.97ZM65.3,43.45c.39.31.85.63,1.14,1.04-2.32,2.03-4.67,4.02-7.06,5.96-1.28,1.04-2.57,2.07-3.88,3.09-.63.49-1.26.97-1.9,1.44-.13.1-.27.2-.41.3-.13-2.75-.27-5.49-.38-8.24,3.07-2.22,6.12-4.45,9.14-6.73.79.75,1.57,1.51,2.36,2.26.32.3.64.6.99.88ZM57.07,35.9c.34.31.68.61,1.04.88.19.14.04.02.22.17.17.15.35.3.52.45.73.65,1.44,1.33,2.15,2-2.73,2.05-5.48,4.07-8.24,6.07-.08-2.04-.14-4.09-.16-6.13-.03-2.56,0-5.12.12-7.68,1.41,1.46,2.87,2.88,4.36,4.24ZM45.59,37.25c1.49-1.48,3.02-2.94,4.54-4.39.43-.41.84-.84,1.26-1.26-.21,4.65-.14,9.31.03,13.96-3.07-1.56-6.1-3.23-8.89-5.24,1.03-1.01,2.03-2.05,3.05-3.07ZM37.82,45.3c.14-.4.59-.75.86-1.06.7-.81,1.39-1.62,2.19-2.34.24-.22.47-.44.7-.66,3.09,2.27,6.5,4.1,9.92,5.82.12,2.91.27,5.82.41,8.73-.31-.15-.61-.32-.92-.48-.85-.47-1.7-.95-2.54-1.44-1.38-.8-2.67-1.44-3.92-2.21-2.22-1.35-4.34-2.94-6.67-4.12-.02,0-.04,0-.06-.02,0-.29-.02-.58-.02-.86,0-.41-.1-.97.04-1.37ZM38.17,66.87s-.02,0-.02,0c-.09.07-.03-.1.02,0ZM42.58,66.97c-1.17-.03-2.33-.06-3.5-.08-.24,0-.48,0-.72-.01-.02,0-.06,0-.11-.01,0-.01,0-.02,0-.01.03-.09,0-.22,0-.32,0-.27,0-.53-.01-.8-.05-2.18-.05-4.36-.07-6.53,1.84.97,3.75,1.83,5.65,2.68,2.39,1.07,4.8,2.11,7.24,3.06.4.15.79.3,1.19.44.01.55.02,1.11.03,1.66-.88.02-1.76.03-2.64.03-2.35,0-4.7-.04-7.05-.1ZM66.67,63.15c-.03.94,0,2.02-.24,2.94-.09.33-.32.56-.66.63-.58.12-1.24.1-1.84.13-2.38.15-4.76.22-7.14.07-1.06-.07-2.14.05-3.21.09,0-.55-.02-1.1-.03-1.66.63-.39,1.24-.8,1.86-1.2,1.76-1.17,3.52-2.34,5.26-3.54,2.02-1.39,4.11-2.64,6.07-4.12,0,.22,0,.44-.02.67-.05,2,0,4-.07,5.99Z"/></svg>